<svg xmlns="http://www.w3.org/2000/svg" x="0px" y="0px" width="100" height="100" viewBox="0 0 50 50">
<path d="M 15.013672 0.75976562 L 14.521484 1.0273438 L 12.537109 2.1113281 L 12.017578 2.3945312 L 12.017578 2.9882812 L 12 35.392578 L 12 35.96875 L 12.498047 36.257812 L 34.482422 48.986328 L 34.982422 49.275391 L 35.482422 48.986328 L 37.482422 47.832031 L 37.982422 47.544922 L 37.982422 46.966797 L 38 22.691406 L 38 22.423828 L 37.865234 22.191406 L 30.865234 10.066406 L 30.732422 9.8359375 L 30.5 9.6992188 L 15.5 1.0390625 L 15.013672 0.75976562 z M 14.996094 2.1933594 L 29.5 10.566406 L 27.998047 11.431641 L 13.525391 2.9960938 L 14.996094 2.1933594 z M 13.267578 3.4257812 L 27.75 11.865234 L 27.75 19.804688 A 0.250025 0.250025 0 0 0 27.875 20.021484 L 34.75 23.988281 L 34.732422 47.6875 L 13.25 35.248047 L 13.267578 3.4257812 z M 29.908203 10.908203 L 36.658203 22.599609 L 35.091797 23.503906 L 28.341797 11.8125 L 29.908203 10.908203 z M 28.25 12.654297 L 34.316406 23.162109 L 28.25 19.660156 L 28.25 12.654297 z M 16.980469 17.822266 A 0.250025 0.250025 0 0 0 16.75 18.072266 L 16.75 20.380859 A 0.250025 0.250025 0 0 0 16.875 20.597656 L 30.875 28.679688 A 0.250025 0.250025 0 0 0 31.25 28.464844 L 31.25 26.154297 A 0.250025 0.250025 0 0 0 31.125 25.939453 L 17.125 17.855469 A 0.250025 0.250025 0 0 0 16.980469 17.822266 z M 17.25 18.505859 L 30.75 26.298828 L 30.75 28.03125 L 17.25 20.236328 L 17.25 18.505859 z M 36.75 23.125 L 36.732422 46.822266 L 35.232422 47.6875 L 35.25 23.990234 L 36.75 23.125 z M 16.980469 23.595703 A 0.250025 0.250025 0 0 0 16.75 23.845703 L 16.75 26.154297 A 0.250025 0.250025 0 0 0 16.875 26.371094 L 27.875 32.722656 A 0.250025 0.250025 0 0 0 28.25 32.505859 L 28.25 30.195312 A 0.250025 0.250025 0 0 0 28.125 29.980469 L 17.125 23.628906 A 0.250025 0.250025 0 0 0 16.980469 23.595703 z M 17.25 24.277344 L 27.75 30.339844 L 27.75 32.072266 L 17.25 26.009766 L 17.25 24.277344 z M 16.980469 29.369141 A 0.250025 0.250025 0 0 0 16.75 29.619141 L 16.75 31.927734 A 0.250025 0.250025 0 0 0 16.875 32.144531 L 30.875 40.226562 A 0.250025 0.250025 0 0 0 31.25 40.011719 L 31.25 37.701172 A 0.250025 0.250025 0 0 0 31.125 37.486328 L 17.125 29.402344 A 0.250025 0.250025 0 0 0 16.980469 29.369141 z M 17.25 30.052734 L 30.75 37.845703 L 30.75 39.578125 L 17.25 31.783203 L 17.25 30.052734 z"></path>
</svg>